<svg width="25" height="25" viewBox="0 0 25 25" fill="none" xmlns="http://www.w3.org/2000/svg">
<path fill-rule="evenodd" clip-rule="evenodd" d="M12.5267 2.4541C7.01773 2.4541 2.55273 6.9191 2.55273 12.4281C2.55273 16.8341 5.40973 20.5731 9.37373 21.8931C9.87273 21.9831 10.0527 21.6761 10.0527 21.4121C10.0527 21.1751 10.0447 20.5471 10.0417 19.7161C7.26673 20.3181 6.68073 18.3781 6.68073 18.3781C6.22873 17.2261 5.57373 16.9191 5.57373 16.9191C4.66873 16.3001 5.64273 16.3141 5.64273 16.3141C6.64473 16.3841 7.16973 17.3421 7.16973 17.3421C8.05973 18.8661 9.50573 18.4261 10.0717 18.1711C10.1627 17.5261 10.4227 17.0861 10.7067 16.8371C8.49273 16.5861 6.16473 15.7301 6.16473 11.9071C6.16473 10.8201 6.55373 9.9281 7.18873 9.2321C7.08773 8.9791 6.74273 7.9641 7.28773 6.5921C7.28773 6.5921 8.12473 6.3231 10.0297 7.6131C10.8277 7.3921 11.6787 7.2811 12.5257 7.2771C13.3747 7.2811 14.2267 7.3921 15.0217 7.6131C16.9277 6.3221 17.7637 6.5921 17.7637 6.5921C18.3087 7.9641 17.9667 8.9791 17.8627 9.2321C18.5027 9.9281 18.8867 10.8191 18.8867 11.9071C18.8867 15.7401 16.5567 16.5821 14.3347 16.8291C14.6897 17.1371 15.0097 17.7451 15.0097 18.6751C15.0097 20.0091 14.9977 21.0851 14.9977 21.4121C14.9977 21.6791 15.1757 21.9891 15.6847 21.8911C19.6467 20.5691 22.5007 16.8331 22.5007 12.4281C22.5007 6.9191 18.0357 2.4541 12.5267 2.4541Z" fill="#9CA3AF"/>
</svg>
