<svg width="22" height="23" viewBox="0 0 22 23" fill="none" xmlns="http://www.w3.org/2000/svg">
<path d="M3.00002 21.2715C3.6026 21.4541 4.41649 21.4541 5.8 21.4541H16.2C17.5835 21.4541 18.3974 21.4541 19 21.2715M3.00002 21.2715C2.87082 21.2324 2.75133 21.1849 2.63803 21.1271C2.07354 20.8395 1.6146 20.3806 1.32698 19.8161C1 19.1743 1 18.3343 1 16.6541V6.2541C1 4.57394 1 3.73386 1.32698 3.09213C1.6146 2.52764 2.07354 2.0687 2.63803 1.78108C3.27976 1.4541 4.11984 1.4541 5.8 1.4541H16.2C17.8802 1.4541 18.7202 1.4541 19.362 1.78108C19.9265 2.0687 20.3854 2.52764 20.673 3.09213C21 3.73386 21 4.57394 21 6.2541V16.6541C21 18.3343 21 19.1743 20.673 19.8161C20.3854 20.3806 19.9265 20.8395 19.362 21.1271C19.2487 21.1849 19.1292 21.2324 19 21.2715M3.00002 21.2715C3.00035 20.4622 3.00521 20.034 3.07686 19.6737C3.39249 18.087 4.63288 16.8466 6.21964 16.531C6.60603 16.4541 7.07069 16.4541 8 16.4541H14C14.9293 16.4541 15.394 16.4541 15.7804 16.531C17.3671 16.8466 18.6075 18.087 18.9231 19.6737C18.9948 20.034 18.9996 20.4622 19 21.2715M15 8.9541C15 11.1632 13.2091 12.9541 11 12.9541C8.79086 12.9541 7 11.1632 7 8.9541C7 6.74496 8.79086 4.9541 11 4.9541C13.2091 4.9541 15 6.74496 15 8.9541Z" stroke="#C45359" stroke-width="2" stroke-linecap="round" stroke-linejoin="round"/>
</svg>
