<svg width="19" height="19" viewBox="0 0 19 19" fill="none" xmlns="http://www.w3.org/2000/svg">
<path d="M17.5 0.454102H1.5C0.947 0.454102 0.5 0.902102 0.5 1.4541V17.4541C0.5 18.0061 0.947 18.4541 1.5 18.4541H17.5C18.053 18.4541 18.5 18.0061 18.5 17.4541V1.4541C18.5 0.902102 18.053 0.454102 17.5 0.454102ZM5.839 15.7911H3.167V7.2011H5.839V15.7911ZM4.503 6.0281C3.647 6.0281 2.955 5.3341 2.955 4.4801C2.955 3.6261 3.646 2.9321 4.503 2.9321C5.357 2.9321 6.051 3.6251 6.051 4.4801C6.051 5.3351 5.357 6.0281 4.503 6.0281ZM15.838 15.7911H13.169V11.6141C13.169 10.6181 13.151 9.3371 11.781 9.3371C10.391 9.3371 10.18 10.4231 10.18 11.5441V15.7921H7.513V7.2021H10.073V8.3761H10.11C10.465 7.7011 11.337 6.9891 12.634 6.9891C15.338 6.9891 15.837 8.7671 15.837 11.0811L15.838 15.7911Z" fill="#9CA3AF"/>
</svg>
