<svg width="40" height="47" viewBox="0 0 40 47" fill="none" xmlns="http://www.w3.org/2000/svg">
<path d="M0 11.417L10.3644 5.4251L22.834 12.8745L19.5142 14.7368L10.3644 9.47368L3.31984 13.6032V18.8664L0 20.7287V11.417Z" fill="#C55258"/>
<path d="M0 34.7368V22.6721L12.5506 15.2227V19.3522L3.31984 24.6964V32.7126L8.01619 35.0607L8.09717 39.3522L0 34.7368Z" fill="#C55258"/>
<path d="M12.0648 4.45344L19.919 0L30.3644 5.91093V20.4858L26.9636 18.5425V7.85425L19.919 3.88664L15.3036 6.5587L12.0648 4.45344Z" fill="#C55258"/>
<path d="M31.9838 6.88259L40 11.417V23.4008L27.4494 30.7692V26.8016L36.6802 21.5385V13.6032L31.9838 10.8502V6.88259Z" fill="#C55258"/>
<path d="M40 25.5061V34.7368L29.7166 40.6249L17.004 33.3603L20.4049 31.417L29.7166 36.6802L36.6802 32.6316V27.2874L40 25.5061Z" fill="#C55258"/>
<path d="M27.9352 41.6194L19.919 46.2348L9.63563 40.2989V25.5061L13.0364 27.6113V38.3806L19.919 42.2672L24.6154 39.5951L27.9352 41.6194Z" fill="#C55258"/>
<path d="M0 11.417L10.3644 5.4251L22.834 12.8745L19.5142 14.7368L10.3644 9.47368L3.31984 13.6032V18.8664L0 20.7287V11.417Z" stroke="#C55258"/>
<path d="M0 34.7368V22.6721L12.5506 15.2227V19.3522L3.31984 24.6964V32.7126L8.01619 35.0607L8.09717 39.3522L0 34.7368Z" stroke="#C55258"/>
<path d="M12.0648 4.45344L19.919 0L30.3644 5.91093V20.4858L26.9636 18.5425V7.85425L19.919 3.88664L15.3036 6.5587L12.0648 4.45344Z" stroke="#C55258"/>
<path d="M31.9838 6.88259L40 11.417V23.4008L27.4494 30.7692V26.8016L36.6802 21.5385V13.6032L31.9838 10.8502V6.88259Z" stroke="#C55258"/>
<path d="M40 25.5061V34.7368L29.7166 40.6249L17.004 33.3603L20.4049 31.417L29.7166 36.6802L36.6802 32.6316V27.2874L40 25.5061Z" stroke="#C55258"/>
<path d="M27.9352 41.6194L19.919 46.2348L9.63563 40.2989V25.5061L13.0364 27.6113V38.3806L19.919 42.2672L24.6154 39.5951L27.9352 41.6194Z" stroke="#C55258"/>
</svg>
