<svg width="22" height="19" viewBox="0 0 22 19" fill="none" xmlns="http://www.w3.org/2000/svg">
<path d="M1 4.4541L9.1649 10.1695C9.8261 10.6324 10.1567 10.8638 10.5163 10.9534C10.8339 11.0326 11.1661 11.0326 11.4837 10.9534C11.8433 10.8638 12.1739 10.6324 12.8351 10.1695L21 4.4541M5.8 17.4541H16.2C17.8802 17.4541 18.7202 17.4541 19.362 17.1271C19.9265 16.8395 20.3854 16.3806 20.673 15.8161C21 15.1743 21 14.3343 21 12.6541V6.2541C21 4.57394 21 3.73386 20.673 3.09213C20.3854 2.52764 19.9265 2.0687 19.362 1.78108C18.7202 1.4541 17.8802 1.4541 16.2 1.4541H5.8C4.11984 1.4541 3.27976 1.4541 2.63803 1.78108C2.07354 2.0687 1.6146 2.52764 1.32698 3.09213C1 3.73386 1 4.57394 1 6.2541V12.6541C1 14.3343 1 15.1743 1.32698 15.8161C1.6146 16.3806 2.07354 16.8395 2.63803 17.1271C3.27976 17.4541 4.11984 17.4541 5.8 17.4541Z" stroke="#020916" stroke-width="2" stroke-linecap="round" stroke-linejoin="round"/>
</svg>
