<svg width="187" height="211" viewBox="0 0 187 211" fill="none" xmlns="http://www.w3.org/2000/svg">
<path d="M1.41528 74.864L2.41234 134.134L54.2012 164.034M1.41528 74.864L53.5419 45.5747L79.4364 60.5249M1.41528 74.864L53.7221 105.063M133.438 209.782L185.784 181.309L184.568 121.223M133.438 209.782L80.0957 178.984L79.9255 150.575M133.438 209.782L132.441 150.512M185.114 31.7708L132.29 1.27243L79.6453 30.2627M185.114 31.7708L185.295 91.2594L158.155 105.973M185.114 31.7708L131.952 60.462M184.568 121.223L132.441 150.512M184.568 121.223L158.155 105.973M79.4364 60.5249L79.6453 30.2627M79.4364 60.5249L105.331 75.4751M79.6453 30.2627L131.952 60.462M54.2012 164.034L79.9255 150.575M54.2012 164.034L53.7221 105.063M79.9255 150.575L79.6165 120.014M79.6165 120.014L132.441 150.512M79.6165 120.014L106.836 103.965M158.155 105.973L134.284 119.812M131.952 60.462L134.284 119.812M134.284 119.812L106.836 103.965M106.836 103.965L105.331 75.4751M105.331 75.4751L53.7221 105.063" stroke="#C55258" stroke-width="2"/>
</svg>
