<svg width="159" height="184" viewBox="0 0 159 184" fill="none" xmlns="http://www.w3.org/2000/svg">
<path d="M1 47V137L79.2609 182M1 47L79.2609 2L157.033 47M1 47L16.6522 56.0282M79.2609 182L157.033 137V47M79.2609 182V163.902M157.033 47L141.38 56.0282M79.0163 92L79.2609 20.0978M79.0163 92L16.6522 127.972M79.0163 92L141.38 127.972M79.2609 20.0978L16.6522 56.0282M79.2609 20.0978L141.38 56.0282M16.6522 56.0282V127.972M16.6522 127.972L79.2609 163.902M141.38 56.0282V127.972M141.38 127.972L79.2609 163.902" stroke="#C55258" stroke-width="2"/>
</svg>
