<svg width="159" height="184" viewBox="0 0 159 184" fill="none" xmlns="http://www.w3.org/2000/svg">
<path d="M1 47.4891L31.8152 29.3511L47.9565 38.852M1 47.4891V83.6848L17.018 92.7516M1 47.4891L31.8152 65.1255M78.7717 182L110.076 164.196V146.293M78.7717 182V145.804M78.7717 182L47.663 164.196V146.293M157.033 47.4891V83.6848L141.552 92.3924M157.033 47.4891L126.072 65.0978M157.033 47.4891L125.373 29.3511L110.076 38.1951M62.6304 47.4891L47.9565 38.852M62.6304 47.4891V65.0978M62.6304 47.4891L31.8152 65.1255M47.9565 19.8502L78.7717 2L110.076 20.587M47.9565 19.8502L78.7717 37.7065M47.9565 19.8502V38.852M78.7717 37.7065L110.076 20.587M78.7717 37.7065V56.2935M110.076 20.587V38.1951M78.7717 56.2935L62.6304 65.0978M78.7717 56.2935L94.4239 65.0978M62.6304 65.0978L47.9565 74.3636M78.7717 127.707V92M78.7717 127.707L94.1442 119.06M78.7717 127.707L63.6154 119.127M78.7717 92L110.076 74.1957M78.7717 92L47.9565 74.3636M110.076 74.1957L94.4239 65.0978M110.076 74.1957V92.1467M110.076 110.098V92.1467M110.076 110.098L126.072 119.493M110.076 110.098L94.1442 119.06M78.7717 145.804L110.076 128.391M78.7717 145.804L47.663 128.391M157.033 102.272V137.489L126.072 155.098M157.033 102.272L126.072 119.493M157.033 102.272L141.552 92.3924M110.076 128.391V146.293M110.076 128.391L94.1442 119.06M126.072 65.0978V101.1M126.072 65.0978L94.4239 47.2443M126.072 155.098V119.493M126.072 155.098L110.076 146.293M126.072 101.1L110.076 92.1467M126.072 101.1L141.552 92.3924M110.076 38.1951L94.4239 47.2443M94.4239 47.2443V65.0978M47.9565 74.3636L47.8123 91.9215M47.663 110.098L47.8123 91.9215M47.663 110.098L31.8152 119.521M47.663 110.098L63.6154 119.127M31.8152 65.1255V101.127M31.8152 101.127L47.8123 91.9215M31.8152 101.127L17.018 92.7516M1 102.272V137.489L31.7668 155.098M1 102.272L17.018 92.7516M1 102.272L31.8152 119.521M31.8152 119.521L31.7668 155.098M31.7668 155.098L47.663 146.293M47.663 128.391V146.293M47.663 128.391L63.6154 119.127" stroke="#C55258" stroke-width="2"/>
</svg>
