<svg width="159" height="184" viewBox="0 0 159 184" fill="none" xmlns="http://www.w3.org/2000/svg">
<path d="M1 47V137L79.5062 182M1 47L79.5062 2L157.522 47M1 47L79.5062 91.6651M79.5062 182L157.522 137V47M79.5062 182V91.6651M157.522 47L79.5062 91.6651M79.5062 20.0978L32.4822 47L79.5062 73.9022L110.566 55.9931M79.5062 20.0978L126.163 47L110.566 55.9931M79.5062 20.0978V38.1957M16.7012 127.972V73.9022L32.4822 82.9767M16.7012 127.972L63.4851 154.737V100.804L32.4822 82.9767M16.7012 127.972L32.4822 118.808M141.82 127.972V73.9022L126.163 82.9767M141.82 127.972L95.4022 154.737V136.441M141.82 127.972L126.163 118.808M79.5062 38.1957L48.1037 56.0489M79.5062 38.1957L110.566 55.9931M126.163 118.808V82.9767M126.163 118.808L95.4022 136.441M126.163 82.9767L95.4022 100.804V136.441M32.4822 118.808L32.4822 82.9767M32.4822 118.808L63.9422 136.772" stroke="#C55258" stroke-width="2"/>
</svg>
