<svg width="158" height="184" viewBox="0 0 158 184" fill="none" xmlns="http://www.w3.org/2000/svg">
<path d="M1 46.8774V136.632L78.9837 182M1 46.8774L79.2281 2L156.967 46.8774M1 46.8774L16.6456 55.881M78.9837 182L156.967 136.632V46.8774M78.9837 182V163.853M156.967 46.8774L141.322 55.881M78.9837 91.7548L125.859 64.7793M78.9837 91.7548V146.196M78.9837 91.7548L32.1082 64.7793M79.2281 20.0485L16.6456 55.881M79.2281 20.0485L141.322 55.881M79.2281 20.0485L79.0438 74.0981M16.6456 55.881V127.629M16.6456 127.629L78.9837 163.853M16.6456 127.629L31.4087 119.133L63.2888 100.787M141.322 55.881V127.629M141.322 127.629L78.9837 163.853M141.322 127.629L94.6785 100.787M125.859 64.7793V82.9264L94.6785 100.787M125.859 64.7793L110.373 55.881L79.0438 74.0981M94.6785 100.787V136.632L78.9837 146.196M78.9837 146.196L63.2888 136.632V100.787M63.2888 100.787L32.1082 82.9264V64.7793M32.1082 64.7793L47.594 55.881L79.0438 74.0981" stroke="#C55258" stroke-width="2"/>
</svg>
