<svg width="14" height="14" viewBox="0 0 14 14" fill="none" xmlns="http://www.w3.org/2000/svg">
<path d="M6.5205 1.30205C6.6741 0.99076 6.75096 0.835113 6.85523 0.78538C6.94596 0.742113 7.05143 0.742113 7.14216 0.78538C7.2465 0.835113 7.3233 0.99076 7.47696 1.30205L8.93476 4.25536C8.9801 4.34726 9.00276 4.39321 9.0359 4.42889C9.0653 4.46048 9.1005 4.48607 9.13956 4.50425C9.18376 4.52479 9.23443 4.5322 9.33583 4.54702L12.5967 5.02365C12.9401 5.07383 13.1118 5.09893 13.1912 5.1828C13.2604 5.25577 13.2928 5.35604 13.2797 5.45569C13.2646 5.57023 13.1403 5.69131 12.8917 5.93344L10.533 8.23077C10.4595 8.30237 10.4227 8.33824 10.399 8.38084C10.378 8.41851 10.3645 8.45997 10.3593 8.50284C10.3534 8.55124 10.3621 8.60184 10.3794 8.70297L10.936 11.9479C10.9947 12.2902 11.024 12.4613 10.9689 12.5628C10.9209 12.6512 10.8356 12.7132 10.7368 12.7315C10.6231 12.7526 10.4694 12.6717 10.1621 12.5101L7.24696 10.977C7.1561 10.9293 7.1107 10.9054 7.06283 10.896C7.0205 10.8877 6.9769 10.8877 6.93456 10.896C6.8867 10.9054 6.8413 10.9293 6.7505 10.977L3.83531 12.5101C3.52798 12.6717 3.3743 12.7526 3.26068 12.7315C3.16182 12.7132 3.07651 12.6512 3.02852 12.5628C2.97336 12.4613 3.00272 12.2902 3.06141 11.9479L3.61796 8.70297C3.6353 8.60184 3.64398 8.55124 3.63811 8.50284C3.63291 8.45997 3.61944 8.41851 3.59844 8.38084C3.57471 8.33824 3.53795 8.30237 3.46442 8.23077L1.10574 5.93344C0.857136 5.69131 0.732836 5.57023 0.717716 5.45569C0.704556 5.35604 0.737062 5.25577 0.806196 5.1828C0.885656 5.09893 1.05734 5.07383 1.40072 5.02365L4.66157 4.54702C4.76298 4.5322 4.81368 4.52479 4.85784 4.50425C4.89694 4.48607 4.93214 4.46048 4.96149 4.42889C4.99464 4.39321 5.01732 4.34726 5.06268 4.25536L6.5205 1.30205Z" stroke="#9CA3AF" stroke-width="1.33333" stroke-linecap="round" stroke-linejoin="round"/>
</svg>
