<svg width="23" height="23" viewBox="0 0 23 23" fill="none" xmlns="http://www.w3.org/2000/svg">
<path d="M5.09436 10.6829C5.03221 10.2823 4.99996 9.872 4.99996 9.4541C4.99996 5.03582 8.60525 1.4541 13.0526 1.4541C17.4999 1.4541 21.1052 5.03582 21.1052 9.4541C21.1052 10.4522 20.9213 11.4076 20.5852 12.2886C20.5154 12.4716 20.4804 12.5631 20.4646 12.6345C20.4489 12.7053 20.4428 12.7551 20.4411 12.8276C20.4394 12.9007 20.4493 12.9813 20.4692 13.1424L20.8717 16.4126C20.9153 16.7666 20.9371 16.9436 20.8782 17.0723C20.8266 17.1851 20.735 17.2746 20.6211 17.3236C20.4911 17.3795 20.3146 17.3536 19.9617 17.3019L16.7765 16.835C16.6101 16.8106 16.527 16.7984 16.4512 16.7989C16.3763 16.7993 16.3245 16.8048 16.2511 16.8202C16.177 16.8358 16.0823 16.8713 15.893 16.9422C15.0097 17.2731 14.0524 17.4541 13.0526 17.4541C12.6344 17.4541 12.2237 17.4224 11.8227 17.3614M6.63158 21.4541C9.5965 21.4541 12 18.9917 12 15.9541C12 12.9165 9.5965 10.4541 6.63158 10.4541C3.66668 10.4541 1.26316 12.9165 1.26316 15.9541C1.26316 16.5647 1.36028 17.152 1.53955 17.7008C1.61533 17.9328 1.65322 18.0488 1.66566 18.128C1.67864 18.2108 1.68091 18.2572 1.67608 18.3408C1.67145 18.4209 1.65141 18.5114 1.61134 18.6924L1 21.4541L3.9948 21.0451C4.15827 21.0228 4.24 21.0116 4.31137 21.0121C4.38652 21.0126 4.42641 21.0167 4.50011 21.0314C4.5701 21.0453 4.67416 21.082 4.88227 21.1555C5.43059 21.349 6.01911 21.4541 6.63158 21.4541Z" stroke="#020916" stroke-width="2" stroke-linecap="round" stroke-linejoin="round"/>
</svg>
